<svg width="167" height="27" viewBox="0 0 167 27" fill="none" xmlns="http://www.w3.org/2000/svg">
<path d="M12.0853 3.85946C12.3851 2.93918 13.687 2.93918 13.9869 3.85946L15.738 9.23386C15.8721 9.64548 16.2559 9.92406 16.6888 9.92406H22.3495C23.3189 9.92406 23.7213 11.1651 22.9363 11.7339L18.3614 15.0485C18.0099 15.3031 17.8629 15.7554 17.9973 16.1681L19.7459 21.5347C20.0459 22.4556 18.9926 23.2225 18.2084 22.6543L13.6228 19.3319C13.2728 19.0783 12.7994 19.0783 12.4494 19.3319L7.86382 22.6543C7.07956 23.2225 6.02627 22.4556 6.3263 21.5347L8.07487 16.1681C8.20932 15.7554 8.06224 15.3031 7.71078 15.0485L3.13591 11.7339C2.3509 11.1651 2.75323 9.92406 3.72263 9.92406H9.38338C9.81631 9.92406 10.2001 9.64548 10.3342 9.23386L12.0853 3.85946Z" fill="#070707"/>
<path d="M47.1822 3.85946C47.4821 2.93918 48.784 2.93918 49.0838 3.85946L50.8349 9.23386C50.969 9.64548 51.3528 9.92406 51.7857 9.92406H57.4465C58.4159 9.92406 58.8182 11.1651 58.0332 11.7339L53.4583 15.0485C53.1069 15.3031 52.9598 15.7554 53.0942 16.1681L54.8428 21.5347C55.1428 22.4556 54.0895 23.2225 53.3053 22.6543L48.7197 19.3319C48.3697 19.0783 47.8963 19.0783 47.5463 19.3319L42.9607 22.6543C42.1765 23.2225 41.1232 22.4556 41.4232 21.5347L43.1718 16.1681C43.3062 15.7554 43.1592 15.3031 42.8077 15.0485L38.2328 11.7339C37.4478 11.1651 37.8502 9.92406 38.8196 9.92406H44.4803C44.9132 9.92406 45.297 9.64548 45.4311 9.23386L47.1822 3.85946Z" fill="#070707"/>
<path d="M82.2794 3.85946C82.5792 2.93918 83.8811 2.93918 84.181 3.85946L85.9321 9.23386C86.0662 9.64548 86.45 9.92406 86.8829 9.92406H92.5436C93.513 9.92406 93.9154 11.1651 93.1304 11.7339L88.5555 15.0485C88.204 15.3031 88.0569 15.7554 88.1914 16.1681L89.94 21.5347C90.24 22.4556 89.1867 23.2225 88.4024 22.6543L83.8169 19.3319C83.4669 19.0783 82.9935 19.0783 82.6435 19.3319L78.0579 22.6543C77.2737 23.2225 76.2204 22.4556 76.5204 21.5347L78.269 16.1681C78.4034 15.7554 78.2563 15.3031 77.9049 15.0485L73.33 11.7339C72.545 11.1651 72.9473 9.92406 73.9167 9.92406H79.5775C80.0104 9.92406 80.3942 9.64548 80.5283 9.23386L82.2794 3.85946Z" fill="#070707"/>
<path d="M117.377 3.85946C117.676 2.93918 118.978 2.93918 119.278 3.85946L121.029 9.23386C121.163 9.64548 121.547 9.92406 121.98 9.92406H127.641C128.61 9.92406 129.013 11.1651 128.228 11.7339L123.653 15.0485C123.301 15.3031 123.154 15.7554 123.289 16.1681L125.037 21.5347C125.337 22.4556 124.284 23.2225 123.5 22.6543L118.914 19.3319C118.564 19.0783 118.091 19.0783 117.741 19.3319L113.155 22.6543C112.371 23.2225 111.318 22.4556 111.618 21.5347L113.366 16.1681C113.501 15.7554 113.354 15.3031 113.002 15.0485L108.427 11.7339C107.642 11.1651 108.044 9.92406 109.014 9.92406H114.675C115.108 9.92406 115.491 9.64548 115.625 9.23386L117.377 3.85946Z" fill="#070707"/>
<path d="M152.474 3.85946C152.774 2.93918 154.075 2.93918 154.375 3.85946L156.126 9.23386C156.261 9.64548 156.644 9.92406 157.077 9.92406H162.738C163.707 9.92406 164.11 11.1651 163.325 11.7339L158.75 15.0485C158.398 15.3031 158.251 15.7554 158.386 16.1681L160.134 21.5347C160.434 22.4556 159.381 23.2225 158.597 22.6543L154.011 19.3319C153.661 19.0783 153.188 19.0783 152.838 19.3319L148.252 22.6543C147.468 23.2225 146.415 22.4556 146.715 21.5347L148.463 16.1681C148.598 15.7554 148.451 15.3031 148.099 15.0485L143.524 11.7339C142.739 11.1651 143.142 9.92406 144.111 9.92406H149.772C150.205 9.92406 150.588 9.64548 150.723 9.23386L152.474 3.85946Z" fill="#E5E5E5"/>
</svg>
