<svg width="168" height="27" viewBox="0 0 168 27" fill="none" xmlns="http://www.w3.org/2000/svg">
<path d="M12.7957 3.8597C13.0956 2.93943 14.3975 2.93943 14.6973 3.8597L16.4484 9.2341C16.5826 9.64573 16.9663 9.92431 17.3992 9.92431H23.06C24.0294 9.92431 24.4317 11.1653 23.6467 11.7341L19.0718 15.0487C18.7204 15.3034 18.5733 15.7557 18.7078 16.1683L20.4563 21.535C20.7563 22.4558 19.7031 23.2228 18.9188 22.6546L14.3333 19.3322C13.9832 19.0786 13.5099 19.0786 13.1598 19.3322L8.57427 22.6546C7.79001 23.2228 6.73672 22.4558 7.03675 21.535L8.78532 16.1683C8.91977 15.7557 8.77269 15.3034 8.42123 15.0487L3.84636 11.7341C3.06135 11.1653 3.46368 9.92431 4.43308 9.92431H10.0938C10.5268 9.92431 10.9105 9.64573 11.0446 9.2341L12.7957 3.8597Z" fill="#070707"/>
<path d="M47.8929 3.8597C48.1927 2.93943 49.4947 2.93943 49.7945 3.8597L51.5456 9.2341C51.6797 9.64573 52.0635 9.92431 52.4964 9.92431H58.1572C59.1266 9.92431 59.5289 11.1653 58.7439 11.7341L54.169 15.0487C53.8175 15.3034 53.6705 15.7557 53.8049 16.1683L55.5535 21.535C55.8535 22.4558 54.8002 23.2228 54.016 22.6546L49.4304 19.3322C49.0804 19.0786 48.607 19.0786 48.257 19.3322L43.6714 22.6546C42.8872 23.2228 41.8339 22.4558 42.1339 21.535L43.8825 16.1683C44.0169 15.7557 43.8699 15.3034 43.5184 15.0487L38.9435 11.7341C38.1585 11.1653 38.5609 9.92431 39.5302 9.92431H45.191C45.6239 9.92431 46.0077 9.64573 46.1418 9.2341L47.8929 3.8597Z" fill="#070707"/>
<path d="M82.9901 3.8597C83.2899 2.93943 84.5918 2.93943 84.8917 3.8597L86.6428 9.2341C86.7769 9.64573 87.1606 9.92431 87.5936 9.92431H93.2543C94.2237 9.92431 94.6261 11.1653 93.841 11.7341L89.2662 15.0487C88.9147 15.3034 88.7676 15.7557 88.9021 16.1683L90.6507 21.535C90.9507 22.4558 89.8974 23.2228 89.1131 22.6546L84.5276 19.3322C84.1776 19.0786 83.7042 19.0786 83.3542 19.3322L78.7686 22.6546C77.9843 23.2228 76.9311 22.4558 77.2311 21.535L78.9797 16.1683C79.1141 15.7557 78.967 15.3034 78.6156 15.0487L74.0407 11.7341C73.2557 11.1653 73.658 9.92431 74.6274 9.92431H80.2882C80.7211 9.92431 81.1049 9.64573 81.239 9.2341L82.9901 3.8597Z" fill="#070707"/>
<path d="M118.087 3.8597C118.387 2.93943 119.689 2.93943 119.989 3.8597L121.74 9.2341C121.874 9.64573 122.258 9.92431 122.691 9.92431H128.351C129.321 9.92431 129.723 11.1653 128.938 11.7341L124.363 15.0487C124.012 15.3034 123.865 15.7557 123.999 16.1683L125.748 21.535C126.048 22.4558 124.995 23.2228 124.21 22.6546L119.625 19.3322C119.275 19.0786 118.801 19.0786 118.451 19.3322L113.866 22.6546C113.082 23.2228 112.028 22.4558 112.328 21.535L114.077 16.1683C114.211 15.7557 114.064 15.3034 113.713 15.0487L109.138 11.7341C108.353 11.1653 108.755 9.92431 109.725 9.92431H115.385C115.818 9.92431 116.202 9.64573 116.336 9.2341L118.087 3.8597Z" fill="#E5E5E5"/>
<path d="M153.184 3.8597C153.484 2.93943 154.786 2.93943 155.086 3.8597L156.837 9.2341C156.971 9.64573 157.355 9.92431 157.788 9.92431H163.449C164.418 9.92431 164.82 11.1653 164.035 11.7341L159.461 15.0487C159.109 15.3034 158.962 15.7557 159.096 16.1683L160.845 21.535C161.145 22.4558 160.092 23.2228 159.307 22.6546L154.722 19.3322C154.372 19.0786 153.899 19.0786 153.548 19.3322L148.963 22.6546C148.179 23.2228 147.125 22.4558 147.425 21.535L149.174 16.1683C149.308 15.7557 149.161 15.3034 148.81 15.0487L144.235 11.7341C143.45 11.1653 143.852 9.92431 144.822 9.92431H150.483C150.915 9.92431 151.299 9.64573 151.433 9.2341L153.184 3.8597Z" fill="#E5E5E5"/>
</svg>
